<svg width="64" height="64" viewBox="0 0 1044 1163" fill="none" xmlns="http://www.w3.org/2000/svg" aria-hidden="true">
  <path class="gift-star-shape" fill="#CDD1CF" d="M 523 20 L 536 477 L 539 522 L 543 535 L 546 539 L 551 538 L 675 422 L 590 517 L 561 552 L 564 550 L 561 556 L 576 563 L 608 566 L 1024 579 L 617 592 L 586 594 L 566 599 L 562 606 L 567 613 L 674 734 L 571 638 L 546 619 L 539 640 L 536 680 L 523 1143 L 510 672 L 507 634 L 501 619 L 494 623 L 496 620 L 374 733 L 482 610 L 485 602 L 481 599 L 432 592 L 20 579 L 414 567 L 476 561 L 485 555 L 479 545 L 483 548 L 379 430 L 494 536 L 502 538 L 508 520 L 512 442 Z"/>
</svg>
