<svg xmlns="http://www.w3.org/2000/svg" viewBox="0 0 1254 1254">
  <path fill="#C9922A" fill-rule="evenodd" d="
    M 624.0 241.0 L 599.0 250.0 L 582.0 276.0 L 583.0 303.0 L 597.0 329.0 L 583.0 334.0 L 575.0 351.0 L 547.0 360.0 L 512.0 382.0 L 489.0 406.0 L 468.0 443.0 L 453.0 497.0 L 426.0 718.0 L 410.0 757.0 L 378.0 796.0 L 370.0 829.0 L 376.0 848.0 L 408.0 868.0 L 480.0 883.0 L 580.0 891.0 L 598.0 917.0 L 630.0 926.0 L 657.0 915.0 L 672.0 891.0 L 796.0 879.0 L 849.0 865.0 L 875.0 846.0 L 880.0 822.0 L 871.0 793.0 L 843.0 758.0 L 826.0 716.0 L 800.0 500.0 L 783.0 439.0 L 746.0 387.0 L 721.0 368.0 L 679.0 352.0 L 673.0 337.0 L 655.0 326.0 L 670.0 300.0 L 668.0 270.0 L 650.0 248.0 Z
    M 647.0 831.0 L 648.0 823.0 L 724.0 823.0 L 808.0 829.0 L 826.0 834.0 L 801.0 842.0 L 801.0 844.0 L 812.0 843.0 L 833.0 836.0 L 841.0 837.0 L 840.0 840.0 L 802.0 852.0 L 728.0 861.0 L 723.0 863.0 L 724.0 865.0 L 759.0 863.0 L 799.0 857.0 L 828.0 850.0 L 851.0 840.0 L 855.0 844.0 L 855.0 848.0 L 851.0 852.0 L 835.0 859.0 L 780.0 871.0 L 710.0 878.0 L 674.0 878.0 L 672.0 863.0 L 667.0 852.0 Z
    M 684.0 865.0 L 686.0 868.0 L 690.0 868.0 L 692.0 865.0 L 690.0 864.0 L 686.0 864.0 Z
    M 703.0 864.0 L 704.0 867.0 L 708.0 867.0 L 714.0 865.0 L 713.0 862.0 Z
    M 617.0 822.0 L 636.0 823.0 L 636.0 830.0 L 639.0 840.0 L 643.0 844.0 L 649.0 847.0 L 657.0 855.0 L 662.0 865.0 L 664.0 874.0 L 664.0 882.0 L 663.0 887.0 L 660.0 895.0 L 657.0 900.0 L 646.0 910.0 L 640.0 913.0 L 633.0 915.0 L 620.0 915.0 L 612.0 913.0 L 606.0 910.0 L 596.0 901.0 L 591.0 893.0 L 588.0 883.0 L 588.0 874.0 L 591.0 863.0 L 596.0 854.0 L 606.0 845.0 L 614.0 841.0 L 621.0 839.0 L 627.0 839.0 L 625.0 835.0 L 620.0 836.0 L 619.0 837.0 L 615.0 836.0 L 615.0 832.0 Z
    M 656.0 882.0 L 651.0 883.0 L 650.0 888.0 L 647.0 894.0 L 638.0 903.0 L 636.0 904.0 L 634.0 904.0 L 632.0 905.0 L 633.0 907.0 L 636.0 907.0 L 641.0 905.0 L 647.0 901.0 L 649.0 899.0 L 649.0 898.0 L 652.0 895.0 L 655.0 889.0 L 656.0 886.0 Z
    M 596.0 882.0 L 596.0 885.0 L 598.0 891.0 L 599.0 893.0 L 601.0 896.0 L 608.0 903.0 L 610.0 904.0 L 614.0 904.0 L 605.0 894.0 L 603.0 891.0 L 602.0 888.0 L 602.0 886.0 L 601.0 883.0 L 600.0 881.0 Z
    M 624.0 875.0 L 622.0 877.0 L 622.0 881.0 L 624.0 883.0 L 628.0 883.0 L 630.0 881.0 L 630.0 877.0 L 628.0 875.0 Z
    M 602.0 862.0 L 599.0 863.0 L 597.0 867.0 L 597.0 872.0 L 599.0 872.0 L 601.0 870.0 L 602.0 868.0 L 603.0 865.0 Z
    M 608.0 853.0 L 606.0 854.0 L 605.0 854.0 L 604.0 855.0 L 603.0 857.0 L 605.0 860.0 L 609.0 856.0 Z
    M 640.0 851.0 L 643.0 856.0 L 646.0 859.0 L 648.0 862.0 L 650.0 866.0 L 651.0 874.0 L 652.0 876.0 L 656.0 875.0 L 656.0 869.0 L 655.0 866.0 L 652.0 860.0 L 649.0 857.0 L 649.0 856.0 L 647.0 854.0 L 642.0 851.0 Z
    M 606.0 824.0 L 604.0 834.0 L 584.0 854.0 L 577.0 879.0 L 520.0 877.0 L 446.0 867.0 L 410.0 857.0 L 395.0 848.0 L 395.0 845.0 L 401.0 841.0 L 418.0 849.0 L 450.0 857.0 L 508.0 865.0 L 548.0 866.0 L 546.0 863.0 L 511.0 861.0 L 458.0 854.0 L 425.0 846.0 L 410.0 840.0 L 410.0 837.0 L 417.0 836.0 L 435.0 842.0 L 455.0 845.0 L 455.0 842.0 L 429.0 836.0 L 427.0 832.0 L 503.0 824.0 L 582.0 822.0 Z
    M 556.0 866.0 L 558.0 868.0 L 571.0 868.0 L 571.0 865.0 L 569.0 864.0 Z
    M 381.0 818.0 L 386.0 806.0 L 404.0 797.0 L 469.0 785.0 L 574.0 780.0 L 723.0 781.0 L 815.0 789.0 L 849.0 798.0 L 866.0 808.0 L 869.0 817.0 L 869.0 834.0 L 866.0 836.0 L 849.0 825.0 L 822.0 818.0 L 735.0 811.0 L 565.0 810.0 L 479.0 813.0 L 415.0 821.0 L 382.0 835.0 Z
    M 410.0 802.0 L 408.0 802.0 L 401.0 804.0 L 399.0 805.0 L 396.0 807.0 L 392.0 811.0 L 391.0 813.0 L 390.0 816.0 L 390.0 820.0 L 393.0 822.0 L 395.0 820.0 L 395.0 815.0 L 396.0 813.0 L 399.0 810.0 L 404.0 807.0 L 410.0 805.0 Z
    M 416.0 803.0 L 420.0 803.0 L 423.0 802.0 L 425.0 801.0 L 426.0 799.0 L 419.0 799.0 L 417.0 800.0 Z
    M 818.0 798.0 L 819.0 800.0 L 823.0 800.0 L 831.0 802.0 L 846.0 807.0 L 850.0 809.0 L 853.0 811.0 L 855.0 813.0 L 856.0 815.0 L 856.0 821.0 L 859.0 822.0 L 861.0 820.0 L 861.0 817.0 L 860.0 813.0 L 859.0 811.0 L 856.0 808.0 L 853.0 806.0 L 843.0 802.0 L 835.0 800.0 L 825.0 798.0 Z
    M 517.0 391.0 L 568.0 363.0 L 646.0 356.0 L 701.0 369.0 L 751.0 407.0 L 773.0 441.0 L 786.0 479.0 L 812.0 697.0 L 838.0 773.0 L 772.0 761.0 L 689.0 759.0 L 807.0 771.0 L 847.0 782.0 L 852.0 791.0 L 787.0 778.0 L 635.0 773.0 L 479.0 777.0 L 396.0 790.0 L 412.0 779.0 L 445.0 771.0 L 567.0 761.0 L 510.0 759.0 L 413.0 772.0 L 431.0 736.0 L 440.0 701.0 L 469.0 470.0 L 491.0 421.0 Z
    M 670.0 761.0 L 675.0 759.0 L 673.0 758.0 L 670.0 759.0 Z
    M 654.0 761.0 L 661.0 760.0 L 661.0 758.0 L 659.0 757.0 Z
    M 737.0 741.0 L 737.0 744.0 L 739.0 745.0 L 742.0 745.0 L 744.0 743.0 L 743.0 740.0 Z
    M 508.0 743.0 L 510.0 745.0 L 514.0 745.0 L 516.0 744.0 L 515.0 740.0 L 510.0 740.0 Z
    M 718.0 739.0 L 716.0 742.0 L 717.0 744.0 L 722.0 744.0 L 723.0 741.0 L 721.0 739.0 Z
    M 530.0 742.0 L 531.0 744.0 L 537.0 743.0 L 537.0 741.0 L 535.0 739.0 L 533.0 739.0 L 531.0 740.0 Z
    M 785.0 719.0 L 784.0 722.0 L 784.0 727.0 L 785.0 732.0 L 788.0 739.0 L 787.0 742.0 L 785.0 742.0 L 780.0 741.0 L 779.0 740.0 L 776.0 740.0 L 773.0 741.0 L 769.0 743.0 L 770.0 746.0 L 781.0 745.0 L 787.0 747.0 L 791.0 749.0 L 794.0 752.0 L 797.0 753.0 L 799.0 752.0 L 799.0 749.0 L 798.0 747.0 L 793.0 740.0 L 791.0 735.0 L 789.0 728.0 L 789.0 721.0 L 788.0 719.0 Z
    M 472.0 694.0 L 470.0 694.0 L 468.0 696.0 L 467.0 700.0 L 467.0 712.0 L 465.0 717.0 L 465.0 725.0 L 461.0 737.0 L 458.0 743.0 L 453.0 749.0 L 453.0 751.0 L 456.0 753.0 L 460.0 751.0 L 462.0 749.0 L 470.0 746.0 L 485.0 745.0 L 485.0 743.0 L 483.0 742.0 L 481.0 742.0 L 478.0 740.0 L 474.0 740.0 L 468.0 742.0 L 465.0 741.0 L 465.0 739.0 L 468.0 731.0 L 469.0 725.0 L 469.0 716.0 L 470.0 709.0 L 472.0 705.0 L 473.0 700.0 L 473.0 696.0 Z
    M 638.0 689.0 L 642.0 685.0 L 641.0 681.0 L 636.0 685.0 Z
    M 470.0 678.0 L 470.0 682.0 L 471.0 685.0 L 474.0 684.0 L 475.0 681.0 L 475.0 679.0 L 474.0 677.0 Z
    M 650.0 674.0 L 647.0 676.0 L 647.0 679.0 L 650.0 678.0 Z
    M 654.0 672.0 L 654.0 675.0 L 657.0 675.0 L 664.0 672.0 L 673.0 673.0 L 674.0 676.0 L 676.0 678.0 L 679.0 678.0 L 681.0 677.0 L 682.0 671.0 L 679.0 668.0 L 677.0 667.0 L 674.0 666.0 L 668.0 666.0 L 663.0 667.0 L 660.0 668.0 L 656.0 670.0 Z
    M 570.0 672.0 L 571.0 677.0 L 573.0 678.0 L 576.0 678.0 L 579.0 674.0 L 583.0 672.0 L 588.0 672.0 L 593.0 673.0 L 598.0 676.0 L 601.0 676.0 L 601.0 673.0 L 599.0 671.0 L 592.0 668.0 L 589.0 667.0 L 584.0 666.0 L 580.0 666.0 L 575.0 667.0 L 573.0 668.0 L 571.0 670.0 Z
    M 778.0 650.0 L 776.0 651.0 L 776.0 660.0 L 780.0 683.0 L 781.0 691.0 L 781.0 702.0 L 782.0 706.0 L 783.0 708.0 L 786.0 708.0 L 787.0 706.0 L 787.0 703.0 L 782.0 662.0 L 781.0 656.0 L 780.0 655.0 L 780.0 651.0 Z
    M 777.0 634.0 L 774.0 636.0 L 774.0 640.0 L 776.0 642.0 L 779.0 641.0 L 779.0 640.0 L 780.0 638.0 L 779.0 636.0 Z
    M 588.0 585.0 L 588.0 590.0 L 598.0 593.0 L 609.0 606.0 L 619.0 630.0 L 623.0 652.0 L 620.0 655.0 L 607.0 632.0 L 591.0 620.0 L 574.0 618.0 L 565.0 624.0 L 563.0 632.0 L 566.0 635.0 L 582.0 634.0 L 592.0 638.0 L 614.0 660.0 L 621.0 677.0 L 620.0 687.0 L 610.0 681.0 L 608.0 677.0 L 605.0 677.0 L 605.0 680.0 L 609.0 681.0 L 613.0 688.0 L 622.0 692.0 L 622.0 697.0 L 616.0 710.0 L 609.0 716.0 L 600.0 719.0 L 599.0 723.0 L 610.0 728.0 L 617.0 735.0 L 623.0 751.0 L 627.0 753.0 L 636.0 734.0 L 644.0 727.0 L 652.0 724.0 L 652.0 719.0 L 637.0 711.0 L 630.0 696.0 L 630.0 683.0 L 635.0 666.0 L 644.0 652.0 L 657.0 640.0 L 676.0 633.0 L 686.0 635.0 L 689.0 632.0 L 689.0 627.0 L 678.0 618.0 L 661.0 620.0 L 648.0 629.0 L 629.0 656.0 L 632.0 634.0 L 638.0 617.0 L 648.0 599.0 L 656.0 592.0 L 663.0 591.0 L 664.0 585.0 L 657.0 584.0 L 645.0 594.0 L 636.0 608.0 L 632.0 620.0 L 628.0 623.0 L 627.0 589.0 L 624.0 590.0 L 625.0 611.0 L 621.0 622.0 L 609.0 596.0 L 599.0 586.0 Z
    M 624.0 709.0 L 628.0 709.0 L 628.0 710.0 L 632.0 716.0 L 634.0 718.0 L 637.0 720.0 L 638.0 720.0 L 639.0 722.0 L 636.0 725.0 L 629.0 731.0 L 628.0 734.0 L 624.0 734.0 L 623.0 731.0 L 616.0 725.0 L 614.0 720.0 L 617.0 719.0 L 621.0 715.0 Z
    M 678.0 628.0 L 671.0 628.0 L 664.0 630.0 L 656.0 634.0 L 652.0 634.0 L 657.0 629.0 L 662.0 626.0 L 664.0 625.0 L 667.0 624.0 L 675.0 624.0 Z
    M 572.0 626.0 L 576.0 624.0 L 583.0 624.0 L 587.0 625.0 L 593.0 628.0 L 596.0 630.0 L 598.0 636.0 L 596.0 634.0 L 588.0 630.0 L 585.0 629.0 L 578.0 628.0 L 576.0 628.0 L 575.0 629.0 Z
    M 769.0 573.0 L 769.0 581.0 L 770.0 597.0 L 771.0 609.0 L 772.0 617.0 L 774.0 625.0 L 777.0 625.0 L 777.0 614.0 L 776.0 603.0 L 774.0 595.0 L 774.0 587.0 L 772.0 582.0 L 771.0 573.0 Z
    M 625.0 560.0 L 623.0 562.0 L 622.0 564.0 L 622.0 568.0 L 623.0 572.0 L 624.0 574.0 L 628.0 574.0 L 628.0 571.0 L 630.0 567.0 L 630.0 564.0 L 629.0 562.0 L 627.0 560.0 Z
    M 623.0 536.0 L 622.0 538.0 L 622.0 541.0 L 624.0 543.0 L 627.0 543.0 L 629.0 541.0 L 629.0 536.0 Z
    M 491.0 513.0 L 488.0 514.0 L 487.0 516.0 L 487.0 523.0 L 485.0 532.0 L 484.0 551.0 L 480.0 577.0 L 477.0 618.0 L 472.0 655.0 L 472.0 668.0 L 475.0 668.0 L 476.0 666.0 L 476.0 660.0 L 477.0 659.0 L 483.0 605.0 L 483.0 594.0 L 486.0 573.0 L 486.0 562.0 L 489.0 531.0 L 491.0 521.0 Z
    M 491.0 495.0 L 489.0 497.0 L 490.0 502.0 L 493.0 502.0 L 495.0 500.0 L 495.0 497.0 L 493.0 495.0 Z
    M 771.0 477.0 L 770.0 480.0 L 773.0 490.0 L 778.0 526.0 L 789.0 640.0 L 797.0 703.0 L 804.0 731.0 L 810.0 746.0 L 816.0 756.0 L 821.0 758.0 L 812.0 740.0 L 802.0 702.0 L 795.0 650.0 L 780.0 504.0 L 776.0 483.0 L 774.0 478.0 Z
    M 765.0 460.0 L 765.0 464.0 L 766.0 467.0 L 770.0 467.0 L 771.0 465.0 L 771.0 463.0 L 770.0 461.0 Z
    M 623.0 457.0 L 622.0 462.0 L 622.0 467.0 L 620.0 474.0 L 617.0 479.0 L 612.0 483.0 L 607.0 485.0 L 604.0 485.0 L 599.0 487.0 L 599.0 491.0 L 601.0 492.0 L 606.0 492.0 L 613.0 495.0 L 618.0 500.0 L 620.0 504.0 L 622.0 511.0 L 622.0 518.0 L 624.0 522.0 L 627.0 522.0 L 629.0 520.0 L 629.0 513.0 L 630.0 508.0 L 632.0 502.0 L 634.0 499.0 L 638.0 495.0 L 640.0 495.0 L 642.0 493.0 L 646.0 492.0 L 650.0 492.0 L 651.0 491.0 L 653.0 491.0 L 652.0 486.0 L 648.0 486.0 L 644.0 485.0 L 638.0 482.0 L 636.0 480.0 L 635.0 480.0 L 634.0 479.0 L 631.0 473.0 L 629.0 465.0 L 629.0 459.0 L 628.0 457.0 Z
    M 627.0 479.0 L 630.0 484.0 L 630.0 485.0 L 631.0 486.0 L 634.0 487.0 L 634.0 490.0 L 628.0 495.0 L 627.0 498.0 L 624.0 498.0 L 623.0 496.0 L 623.0 495.0 L 622.0 493.0 L 621.0 492.0 L 618.0 487.0 L 622.0 484.0 L 624.0 481.0 Z
    M 622.0 438.0 L 622.0 441.0 L 624.0 443.0 L 629.0 442.0 L 628.0 436.0 L 627.0 436.0 Z
    M 521.0 426.0 L 517.0 429.0 L 516.0 432.0 L 512.0 436.0 L 507.0 444.0 L 503.0 452.0 L 497.0 466.0 L 493.0 480.0 L 494.0 485.0 L 497.0 484.0 L 498.0 482.0 L 500.0 472.0 L 504.0 462.0 L 504.0 458.0 L 505.0 455.0 L 510.0 449.0 L 512.0 445.0 L 512.0 443.0 L 513.0 441.0 L 515.0 439.0 L 515.0 437.0 L 516.0 435.0 L 521.0 430.0 Z
    M 626.0 415.0 L 623.0 417.0 L 623.0 421.0 L 627.0 422.0 L 628.0 422.0 L 629.0 418.0 L 628.0 416.0 Z
    M 675.0 371.0 L 673.0 374.0 L 681.0 376.0 L 696.0 382.0 L 708.0 389.0 L 722.0 399.0 L 739.0 416.0 L 743.0 421.0 L 755.0 439.0 L 755.0 441.0 L 758.0 445.0 L 759.0 448.0 L 763.0 448.0 L 763.0 445.0 L 758.0 435.0 L 749.0 421.0 L 742.0 412.0 L 729.0 399.0 L 715.0 388.0 L 707.0 383.0 L 691.0 376.0 L 679.0 372.0 L 676.0 372.0 Z
    M 643.0 367.0 L 644.0 369.0 L 649.0 370.0 L 658.0 368.0 L 655.0 368.0 L 654.0 367.0 Z
    M 609.0 366.0 L 587.0 368.0 L 568.0 373.0 L 541.0 386.0 L 511.0 412.0 L 490.0 445.0 L 477.0 482.0 L 472.0 510.0 L 460.0 636.0 L 450.0 709.0 L 441.0 740.0 L 432.0 758.0 L 436.0 758.0 L 446.0 740.0 L 455.0 710.0 L 463.0 654.0 L 477.0 510.0 L 481.0 487.0 L 492.0 453.0 L 512.0 419.0 L 539.0 393.0 L 564.0 379.0 L 590.0 371.0 L 603.0 370.0 Z
    M 622.0 366.0 L 622.0 368.0 L 630.0 368.0 L 629.0 365.0 Z
    M 587.0 345.0 L 588.0 343.0 L 590.0 341.0 L 595.0 339.0 L 606.0 337.0 L 631.0 336.0 L 654.0 338.0 L 661.0 340.0 L 665.0 344.0 L 665.0 348.0 L 659.0 348.0 L 657.0 346.0 L 656.0 343.0 L 651.0 342.0 L 645.0 342.0 L 644.0 346.0 L 607.0 345.0 L 607.0 342.0 L 600.0 342.0 L 598.0 343.0 L 597.0 346.0 L 594.0 348.0 L 587.0 347.0 Z
    M 615.0 324.0 L 616.0 322.0 L 618.0 320.0 L 622.0 318.0 L 631.0 318.0 L 633.0 319.0 L 636.0 322.0 L 637.0 324.0 L 636.0 327.0 L 615.0 326.0 Z
    M 622.0 270.0 L 630.0 270.0 L 635.0 272.0 L 641.0 278.0 L 643.0 282.0 L 643.0 295.0 L 639.0 303.0 L 632.0 309.0 L 619.0 309.0 L 613.0 303.0 L 610.0 297.0 L 609.0 294.0 L 608.0 289.0 L 609.0 283.0 L 611.0 278.0 L 617.0 272.0 Z
    M 611.0 254.0 L 621.0 251.0 L 630.0 251.0 L 641.0 254.0 L 646.0 257.0 L 657.0 269.0 L 659.0 273.0 L 661.0 280.0 L 661.0 285.0 L 662.0 286.0 L 661.0 296.0 L 659.0 303.0 L 655.0 311.0 L 649.0 319.0 L 646.0 321.0 L 644.0 319.0 L 642.0 315.0 L 642.0 313.0 L 646.0 309.0 L 651.0 299.0 L 652.0 295.0 L 652.0 281.0 L 648.0 272.0 L 642.0 266.0 L 632.0 261.0 L 621.0 261.0 L 611.0 265.0 L 604.0 272.0 L 600.0 281.0 L 600.0 295.0 L 605.0 307.0 L 610.0 313.0 L 610.0 315.0 L 608.0 319.0 L 605.0 320.0 L 600.0 315.0 L 594.0 305.0 L 591.0 296.0 L 591.0 279.0 L 597.0 266.0 L 606.0 257.0 Z
  "/>
</svg>
